<?xml version="1.0" standalone="no"?>
<!DOCTYPE svg PUBLIC "-//W3C//DTD SVG 20010904//EN"
 "http://www.w3.org/TR/2001/REC-SVG-20010904/DTD/svg10.dtd">
<svg version="1.0" xmlns="http://www.w3.org/2000/svg"
 width="822.000000pt" height="822.000000pt" viewBox="0 0 822.000000 822.000000"
 preserveAspectRatio="xMidYMid meet">
<metadata>
Created by potrace 1.14, written by Peter Selinger 2001-2017
</metadata>
<g transform="translate(0.000000,822.000000) scale(0.100000,-0.100000)"
fill="#000000" stroke="none">
<path d="M3805 7788 c-30 -11 -88 -18 -277 -37 -54 -5 -103 -13 -110 -18 -25
-15 -103 -33 -181 -39 -52 -5 -81 -12 -84 -21 -3 -7 -15 -13 -28 -13 -12 0
-36 -7 -51 -15 -16 -8 -42 -15 -57 -15 -16 0 -35 -7 -43 -15 -9 -8 -26 -15
-39 -15 -13 0 -26 -4 -29 -9 -4 -5 -24 -12 -46 -16 -22 -4 -60 -17 -85 -30
-24 -13 -60 -27 -80 -31 -19 -3 -35 -9 -35 -13 0 -10 -67 -41 -88 -41 -10 0
-25 -9 -35 -20 -9 -11 -37 -25 -62 -32 -25 -7 -45 -16 -45 -20 0 -8 -82 -48
-99 -48 -6 0 -11 -4 -11 -9 0 -11 -56 -41 -76 -41 -7 0 -28 -13 -46 -30 -18
-16 -36 -30 -40 -30 -11 0 -102 -63 -111 -77 -4 -7 -12 -13 -18 -13 -5 0 -34
-18 -63 -40 -29 -22 -58 -40 -64 -40 -6 0 -15 -6 -19 -13 -4 -7 -21 -23 -38
-35 -120 -89 -565 -522 -565 -550 0 -4 -20 -30 -45 -59 -25 -28 -45 -54 -45
-58 0 -3 -4 -11 -10 -18 -53 -65 -78 -99 -95 -130 -11 -20 -23 -37 -27 -37 -5
0 -8 -5 -8 -11 0 -6 -13 -28 -28 -48 -16 -20 -32 -43 -35 -51 -4 -8 -21 -37
-38 -65 -16 -27 -35 -62 -40 -77 -6 -16 -15 -28 -19 -28 -5 0 -12 -10 -15 -22
-4 -13 -18 -37 -31 -55 -13 -17 -24 -40 -24 -50 0 -11 -7 -28 -15 -39 -8 -10
-15 -26 -15 -35 0 -9 -7 -22 -15 -29 -8 -7 -15 -20 -15 -30 0 -10 -7 -23 -15
-30 -8 -7 -15 -21 -15 -32 0 -11 -6 -32 -14 -46 -7 -15 -22 -45 -31 -67 -10
-22 -21 -47 -25 -55 -4 -9 -11 -31 -14 -50 -7 -36 -18 -65 -42 -113 -8 -16
-14 -40 -14 -53 0 -14 -7 -41 -15 -61 -8 -19 -15 -47 -15 -60 0 -14 -6 -39
-14 -56 -8 -18 -17 -56 -20 -86 -3 -30 -10 -59 -16 -65 -5 -5 -10 -31 -10 -56
0 -25 -5 -51 -10 -56 -6 -6 -14 -59 -20 -120 -5 -60 -14 -145 -19 -189 -5 -44
-10 -130 -10 -190 -1 -73 -5 -115 -13 -123 -10 -10 -10 -17 0 -32 8 -13 12
-64 13 -142 0 -68 5 -148 10 -178 5 -30 12 -98 15 -150 3 -52 12 -109 20 -127
8 -17 14 -54 14 -81 0 -28 4 -53 9 -57 5 -3 12 -31 16 -63 3 -31 10 -64 15
-73 5 -9 12 -33 15 -53 4 -20 11 -39 16 -42 5 -3 9 -20 9 -38 0 -19 7 -39 15
-46 8 -7 15 -28 15 -47 0 -19 7 -51 16 -71 9 -21 20 -46 25 -57 11 -26 39
-104 46 -130 9 -35 147 -322 211 -440 15 -27 51 -85 80 -129 28 -43 52 -81 52
-83 0 -7 91 -137 115 -163 12 -14 24 -30 26 -37 18 -55 465 -526 563 -592 11
-8 41 -33 66 -55 25 -23 67 -57 94 -76 201 -145 215 -154 434 -279 85 -48 207
-111 216 -111 3 0 34 -13 68 -29 35 -15 84 -38 109 -49 62 -29 357 -126 444
-147 39 -9 95 -22 125 -30 163 -40 280 -57 637 -89 216 -20 504 -5 698 36 28
5 82 14 120 19 93 12 194 33 228 47 16 7 40 12 55 12 15 1 38 7 52 15 14 8 36
14 50 15 16 0 21 3 14 10 -7 7 -26 7 -60 0 -27 -6 -98 -15 -159 -21 -60 -5
-126 -14 -145 -19 -45 -13 -522 -13 -575 0 -22 5 -86 12 -143 16 -56 4 -105
11 -108 15 -3 5 -29 9 -59 9 -34 0 -59 5 -69 15 -8 8 -32 15 -53 15 -21 0 -51
7 -67 15 -15 8 -50 15 -76 15 -30 0 -52 6 -60 15 -7 8 -25 15 -39 15 -15 0
-36 7 -47 15 -10 8 -33 15 -50 15 -17 0 -37 7 -44 15 -7 8 -20 15 -30 15 -10
0 -31 7 -46 15 -16 8 -36 15 -45 15 -9 0 -19 7 -23 15 -3 8 -16 15 -30 15 -14
0 -27 4 -30 9 -3 4 -19 11 -36 14 -16 4 -46 17 -67 30 -21 13 -50 27 -65 31
-16 3 -28 11 -28 16 0 6 -6 10 -13 10 -8 0 -33 14 -55 30 -23 17 -48 30 -56
30 -8 0 -18 5 -21 11 -4 5 -17 15 -28 20 -41 18 -111 62 -136 85 -14 13 -30
24 -36 24 -6 0 -25 13 -43 29 -17 16 -40 32 -49 35 -10 4 -42 29 -72 56 -29
28 -58 50 -64 50 -27 0 -497 479 -497 506 0 5 -8 16 -17 25 -26 23 -73 82 -73
91 0 5 -5 14 -10 21 -50 59 -64 78 -87 117 -14 25 -29 47 -32 50 -4 3 -15 23
-26 45 -11 22 -30 54 -42 71 -38 51 -173 325 -173 349 0 12 -7 28 -15 35 -8 7
-15 20 -15 29 0 10 -7 26 -15 37 -8 10 -15 28 -15 39 0 11 -7 29 -15 39 -8 11
-15 31 -15 45 0 14 -7 35 -15 45 -8 11 -15 32 -15 47 0 15 -4 30 -9 33 -5 4
-12 25 -16 49 -4 23 -11 47 -15 52 -4 6 -11 33 -15 60 -4 28 -10 55 -15 60 -4
6 -10 34 -13 64 -4 30 -11 59 -17 65 -5 5 -10 30 -10 56 0 25 -7 70 -15 100
-8 30 -15 87 -15 125 0 39 -7 120 -15 180 -15 113 -14 134 13 546 5 69 12 131
16 137 4 7 11 42 16 80 5 37 16 97 24 135 9 37 22 95 30 130 25 105 37 151 45
167 5 9 12 31 16 50 4 19 11 41 16 50 4 8 17 42 28 75 11 33 31 84 45 112 14
29 26 56 26 59 0 4 12 32 26 63 36 78 46 97 84 166 64 118 72 130 91 160 10
17 23 39 29 50 19 37 136 209 154 228 8 8 25 30 38 48 107 157 377 431 583
591 81 62 152 115 158 118 7 3 44 26 82 51 95 62 122 78 180 111 83 46 253
129 400 193 17 7 62 23 100 36 39 12 75 25 80 29 6 4 24 10 40 13 50 9 118 28
153 43 18 8 47 14 65 14 18 0 38 5 43 10 6 6 39 14 75 20 35 5 87 13 114 18
172 33 230 37 535 36 267 -1 336 -4 455 -22 226 -34 265 -41 285 -52 10 -5 32
-10 47 -10 16 0 33 -4 39 -10 5 -5 30 -14 54 -19 86 -19 155 -39 200 -59 25
-11 61 -23 80 -27 19 -4 40 -11 46 -17 7 -5 34 -17 60 -27 45 -16 148 -62 184
-82 8 -5 35 -18 60 -31 25 -13 85 -46 133 -75 48 -29 90 -53 92 -53 3 0 24
-13 47 -30 22 -16 45 -30 49 -30 10 0 55 -33 203 -147 93 -72 165 -134 243
-210 24 -24 48 -43 54 -43 5 0 9 -4 9 -8 0 -5 32 -42 70 -83 39 -41 94 -103
123 -137 29 -35 73 -89 99 -120 26 -32 48 -62 48 -68 0 -6 7 -17 15 -24 18
-15 105 -142 105 -153 0 -5 9 -18 20 -30 12 -12 32 -44 46 -72 14 -27 41 -77
60 -110 19 -33 37 -67 40 -75 3 -8 10 -22 15 -30 5 -8 12 -22 15 -30 8 -20 27
-63 63 -141 17 -36 31 -73 31 -81 0 -9 7 -29 15 -44 8 -16 15 -37 15 -46 0
-10 5 -18 10 -18 6 0 10 -6 10 -13 0 -21 41 -151 51 -161 5 -6 9 -23 9 -38 0
-16 7 -45 15 -65 8 -19 15 -51 15 -70 0 -20 4 -32 10 -28 15 9 12 71 -5 112
-8 19 -15 61 -15 92 -1 33 -7 64 -15 75 -8 11 -15 34 -15 50 -1 17 -7 42 -15
56 -8 14 -15 43 -15 65 0 22 -7 49 -15 59 -8 11 -15 27 -15 37 0 9 -7 30 -15
45 -8 16 -15 38 -15 49 0 11 -11 43 -25 70 -13 28 -25 57 -25 65 0 8 -14 42
-30 74 -17 32 -30 67 -30 78 0 10 -13 42 -30 71 -16 30 -30 59 -30 66 0 7 -11
27 -25 45 -14 18 -25 36 -25 41 0 14 -43 95 -51 95 -4 0 -10 16 -13 35 -4 19
-11 35 -15 35 -10 0 -101 143 -101 158 0 6 -6 15 -13 19 -15 9 -77 100 -77
113 0 5 -10 17 -23 27 -12 10 -37 42 -56 71 -18 28 -36 52 -40 52 -3 0 -17 17
-31 38 -14 20 -30 42 -36 47 -7 6 -29 32 -49 60 -21 27 -51 59 -67 71 -16 13
-39 35 -51 51 -24 31 -204 210 -216 215 -13 5 -80 60 -118 96 -18 17 -37 32
-41 32 -4 0 -25 16 -47 35 -22 19 -43 35 -47 35 -7 0 -78 50 -115 80 -7 5 -28
17 -47 27 -20 9 -36 20 -36 24 0 4 -20 18 -45 30 -25 12 -45 26 -45 30 0 4
-10 11 -22 14 -13 4 -36 17 -53 29 -16 12 -45 28 -63 35 -18 8 -38 21 -45 31
-7 9 -28 20 -47 23 -19 4 -48 18 -64 32 -16 14 -39 25 -51 25 -24 0 -83 27
-103 47 -7 7 -23 13 -35 13 -12 0 -44 12 -72 25 -27 14 -67 28 -88 31 -20 4
-40 11 -43 15 -3 5 -13 9 -24 9 -10 0 -20 7 -24 15 -3 10 -19 15 -45 15 -22 0
-55 6 -73 14 -18 8 -49 21 -70 30 -20 9 -54 16 -76 16 -22 0 -59 7 -82 15 -23
8 -57 15 -75 15 -19 0 -35 4 -37 10 -1 5 -48 14 -103 19 -128 13 -241 29 -285
41 -48 13 -577 11 -615 -2z"/>
<path d="M5168 6703 c6 -2 18 -2 25 0 6 3 1 5 -13 5 -14 0 -19 -2 -12 -5z"/>
<path d="M5226 6693 c-11 -11 -6 -23 9 -23 9 0 18 -7 21 -15 4 -10 20 -15 50
-15 30 0 46 -5 50 -15 4 -8 14 -15 24 -15 10 0 23 -7 30 -15 7 -8 23 -15 35
-15 12 0 28 -7 35 -15 7 -8 19 -15 26 -15 8 0 14 -4 14 -9 0 -5 15 -13 33 -16
17 -4 43 -18 56 -31 13 -13 29 -24 35 -24 6 0 25 -14 43 -30 18 -17 38 -30 46
-30 8 0 30 -13 48 -30 19 -16 39 -30 44 -30 6 0 23 -12 37 -27 40 -41 67 -63
77 -63 17 0 286 -261 334 -323 12 -16 28 -35 35 -42 6 -8 12 -18 12 -24 0 -6
9 -11 20 -11 21 0 40 -27 40 -57 0 -10 14 -26 30 -35 17 -9 30 -24 30 -33 0
-8 4 -15 9 -15 5 0 13 -10 17 -22 4 -12 17 -31 30 -41 13 -10 24 -27 24 -37 0
-11 6 -23 13 -27 13 -9 32 -37 46 -70 6 -11 15 -24 20 -28 6 -3 11 -15 11 -25
0 -11 11 -27 25 -36 14 -9 25 -24 25 -34 0 -10 6 -23 14 -29 7 -6 16 -30 19
-53 3 -22 9 -44 14 -47 12 -8 73 -138 73 -154 0 -7 7 -22 15 -33 8 -10 15 -29
15 -42 0 -12 7 -25 15 -28 9 -4 15 -20 15 -43 0 -20 7 -45 15 -55 8 -11 15
-30 15 -42 0 -12 7 -27 15 -34 10 -8 15 -31 15 -66 0 -30 5 -54 10 -54 6 0 10
-16 10 -36 0 -20 7 -48 14 -62 13 -24 21 -82 44 -343 4 -43 4 -200 1 -350 -5
-222 -10 -296 -28 -389 -36 -192 -59 -287 -77 -327 -8 -17 -14 -36 -14 -43 0
-15 -29 -108 -46 -147 -8 -17 -14 -40 -14 -50 0 -11 -11 -30 -25 -43 -14 -13
-25 -33 -25 -45 0 -20 -25 -71 -122 -255 -61 -115 -186 -304 -237 -359 -13
-14 -34 -42 -46 -62 -32 -50 -308 -326 -377 -377 -32 -23 -65 -50 -75 -60 -17
-18 -39 -34 -172 -126 -99 -67 -332 -193 -451 -241 -63 -25 -130 -53 -148 -61
-18 -8 -41 -14 -50 -14 -10 0 -22 -4 -28 -9 -5 -6 -27 -14 -49 -20 -22 -5 -83
-21 -136 -35 -53 -13 -166 -36 -251 -50 -140 -24 -181 -26 -438 -26 -325 0
-427 12 -700 82 -41 11 -119 31 -173 44 -54 14 -151 48 -215 75 -127 55 -337
161 -363 185 -8 8 -18 14 -22 14 -3 0 -36 21 -74 47 -176 120 -276 200 -426
343 -38 36 -73 67 -78 68 -51 19 134 -220 305 -392 87 -88 205 -193 275 -246
18 -14 56 -43 85 -66 28 -22 58 -43 66 -47 8 -4 56 -34 105 -66 50 -33 164
-97 255 -142 211 -105 193 -97 248 -115 26 -9 61 -22 77 -30 58 -26 271 -84
382 -105 29 -5 64 -14 78 -19 15 -6 52 -10 84 -10 32 0 62 -5 70 -12 18 -19
734 -19 753 -1 6 7 37 13 67 13 31 1 74 7 96 15 22 8 54 15 71 15 18 0 45 7
60 15 16 8 46 15 66 15 20 0 39 4 42 9 4 5 25 12 49 16 23 4 74 20 114 36 39
16 78 29 86 29 9 0 28 6 44 14 15 8 69 34 118 57 50 23 122 57 160 77 39 20
93 47 120 61 28 14 64 36 82 49 17 12 34 22 37 22 4 0 19 8 34 19 15 10 70 47
122 82 52 34 100 68 105 74 6 6 28 23 50 37 22 14 55 40 73 57 18 16 38 34 46
38 48 29 252 227 300 292 14 18 40 49 58 69 18 21 45 53 58 72 13 19 30 41 37
48 29 30 188 281 223 354 11 23 32 66 46 93 56 110 150 347 175 440 4 17 17
66 29 110 90 340 119 716 85 1080 -20 203 -61 426 -101 540 -8 23 -14 48 -14
57 0 10 -6 32 -14 50 -8 18 -29 74 -47 123 -33 94 -167 376 -216 456 -79 131
-114 183 -189 284 -98 131 -266 319 -355 395 -35 30 -75 65 -89 78 -76 73
-381 282 -410 282 -6 0 -10 4 -10 9 0 5 -12 14 -27 20 -16 5 -44 19 -63 30
-68 38 -167 81 -187 81 -11 0 -41 11 -67 24 -25 13 -57 24 -70 24 -13 0 -38 7
-56 15 -18 9 -47 19 -66 23 -19 3 -34 10 -34 15 0 5 -18 9 -40 9 -27 0 -43 5
-46 15 -4 11 -21 15 -58 15 -28 0 -62 6 -76 13 -40 21 -88 36 -94 30z"/>
<path d="M2308 5702 c-17 -3 -18 -35 -18 -501 0 -274 -3 -592 -7 -708 -6 -201
-5 -211 13 -221 14 -8 50 -3 139 19 66 16 174 38 239 49 66 11 125 25 133 31
11 9 13 133 13 669 l0 658 -27 6 c-31 5 -458 4 -485 -2z"/>
<path d="M3979 5704 c-15 -4 -17 -73 -21 -697 -3 -381 -3 -697 -1 -704 3 -6
28 -17 56 -23 225 -50 197 -43 442 -115 234 -70 254 -73 490 -75 248 -1 300
-14 419 -101 39 -28 44 -29 157 -29 150 0 400 26 411 43 12 19 11 22 -39 89
-52 68 -141 136 -212 162 -25 9 -56 25 -69 36 -22 18 -22 20 -7 44 9 14 36 36
60 50 99 58 219 229 247 351 15 66 22 313 9 329 -5 6 -13 35 -17 64 -4 29 -11
55 -15 58 -5 3 -9 14 -9 24 0 62 -130 229 -243 315 -38 28 -145 85 -160 85 -5
0 -23 6 -40 13 -68 29 -104 40 -157 48 -30 4 -75 13 -100 19 -45 12 -1166 25
-1201 14z m1091 -439 c91 -19 129 -36 198 -87 93 -69 127 -149 127 -298 0 -64
-6 -113 -18 -151 -24 -76 -97 -157 -168 -188 -30 -13 -63 -28 -74 -35 -13 -7
-118 -12 -312 -14 -275 -3 -291 -3 -297 15 -3 10 -6 184 -7 386 -2 311 0 370
12 378 25 16 455 11 539 -6z"/>
<path d="M2890 4309 c-165 -11 -242 -20 -288 -35 -23 -8 -58 -14 -77 -14 -18
0 -36 -4 -40 -9 -3 -6 -27 -13 -53 -16 -26 -4 -61 -13 -79 -21 -17 -8 -36 -14
-41 -14 -6 0 -31 -11 -56 -24 -25 -14 -61 -28 -78 -31 -18 -4 -37 -11 -43 -15
-5 -4 -25 -11 -42 -15 -18 -3 -33 -11 -33 -16 0 -5 -8 -9 -18 -9 -10 0 -27 -7
-38 -15 -10 -8 -27 -15 -37 -15 -10 0 -20 -7 -23 -15 -4 -8 -12 -15 -19 -15
-6 0 -31 -13 -53 -30 -23 -16 -47 -30 -52 -30 -6 0 -23 -11 -38 -25 -15 -14
-36 -28 -47 -31 -10 -4 -26 -13 -34 -21 -8 -8 -31 -25 -51 -38 -20 -13 -54
-39 -75 -59 -33 -32 -35 -36 -16 -36 11 0 21 4 21 9 0 5 13 12 29 16 16 3 32
13 35 21 3 8 16 14 30 14 14 0 28 5 31 10 3 6 14 10 24 10 10 0 24 7 31 15 7
8 22 15 34 15 11 0 34 7 50 15 15 8 38 15 51 15 12 0 28 7 35 15 7 8 23 15 35
15 12 0 39 7 58 15 20 8 49 15 65 15 16 0 35 7 42 15 7 9 29 15 54 15 23 0 47
5 53 11 6 6 40 15 75 20 94 12 187 28 238 40 67 17 655 24 765 9 50 -6 123
-15 164 -20 40 -5 85 -13 100 -18 14 -6 50 -13 80 -16 30 -3 59 -10 65 -16 5
-5 28 -10 50 -10 23 -1 52 -7 66 -15 14 -8 36 -14 50 -15 23 0 72 -14 160 -45
19 -7 60 -20 90 -30 30 -9 69 -23 87 -31 17 -8 37 -14 45 -14 8 0 18 -3 22 -7
4 -5 31 -14 59 -21 29 -7 79 -20 112 -29 33 -9 83 -18 112 -20 29 -3 57 -11
64 -19 7 -8 30 -14 55 -14 23 0 55 -5 71 -11 15 -6 62 -15 103 -19 41 -4 93
-13 115 -19 25 -6 167 -11 370 -11 262 0 338 3 370 15 22 8 56 14 76 15 20 0
53 7 72 15 20 8 52 15 70 15 19 0 40 7 47 15 7 8 27 15 44 15 17 0 40 7 50 15
11 8 32 15 48 15 15 0 28 4 28 9 0 5 10 13 23 16 12 4 59 24 104 46 46 21 87
39 93 39 5 0 10 4 10 9 0 5 10 13 23 16 12 4 39 20 59 36 20 16 40 29 45 30 4
0 35 20 68 44 33 25 78 57 100 71 22 15 62 49 88 75 38 39 44 49 29 49 -11 0
-22 -7 -26 -15 -3 -8 -14 -15 -25 -15 -12 0 -46 -13 -76 -30 -30 -16 -64 -30
-75 -30 -10 0 -22 -4 -25 -10 -3 -5 -14 -10 -24 -10 -9 0 -22 -5 -28 -11 -15
-15 -111 -48 -139 -49 -12 0 -27 -7 -34 -15 -7 -8 -25 -15 -40 -15 -15 0 -41
-7 -56 -15 -16 -8 -45 -15 -65 -15 -20 0 -42 -7 -49 -15 -8 -10 -31 -15 -69
-15 -31 0 -62 -5 -68 -11 -6 -6 -51 -13 -99 -16 -49 -3 -97 -9 -106 -14 -23
-12 -517 -12 -570 1 -24 5 -79 14 -123 20 -154 20 -197 28 -208 39 -6 6 -26
11 -44 11 -19 0 -50 7 -70 15 -19 8 -44 15 -53 15 -10 0 -31 6 -47 14 -39 19
-127 46 -150 46 -10 0 -23 4 -28 9 -6 6 -28 14 -50 20 -104 26 -131 33 -150
41 -11 5 -41 14 -67 19 -27 6 -69 16 -95 22 -27 5 -57 14 -68 19 -11 5 -50 12
-87 15 -37 4 -70 11 -73 16 -4 5 -39 9 -78 9 -46 0 -80 5 -92 14 -12 8 -59 16
-110 20 -50 3 -128 10 -175 15 -96 11 -411 11 -570 0z"/>
<path d="M2820 4001 c-69 -4 -132 -10 -140 -14 -8 -4 -44 -11 -80 -17 -96 -13
-170 -31 -170 -41 0 -5 -11 -9 -25 -9 -14 0 -42 -7 -62 -15 -19 -8 -46 -15
-58 -15 -12 0 -28 -7 -35 -15 -7 -8 -25 -15 -41 -15 -15 0 -31 -4 -34 -10 -11
-18 58 -9 225 32 48 11 114 19 325 38 140 13 361 8 490 -10 152 -21 270 -42
315 -55 25 -7 56 -16 70 -18 59 -13 116 -28 135 -36 11 -5 53 -19 92 -31 40
-12 75 -26 78 -31 4 -5 13 -9 21 -9 9 0 45 -13 81 -30 35 -16 67 -30 69 -30 3
0 31 -12 62 -26 31 -14 111 -48 177 -76 66 -27 129 -53 140 -58 11 -4 43 -15
70 -23 28 -9 95 -29 150 -46 55 -17 110 -31 122 -31 12 0 34 -5 50 -11 15 -7
48 -15 73 -20 292 -49 434 -63 597 -56 165 6 357 31 418 54 41 15 68 23 165
50 30 9 60 19 65 23 6 4 25 11 43 15 17 3 32 11 32 16 0 14 -87 10 -127 -6
-19 -8 -57 -15 -82 -15 -26 0 -97 -7 -157 -16 -137 -20 -605 -24 -704 -5 -36
7 -94 16 -130 21 -36 5 -94 16 -130 25 -36 8 -90 20 -120 26 -30 6 -87 21
-126 35 -39 13 -79 24 -89 24 -10 0 -37 8 -59 19 -23 10 -75 30 -116 45 -113
42 -296 115 -375 152 -77 35 -223 88 -300 109 -27 7 -70 20 -95 29 -25 8 -65
18 -90 22 -25 4 -49 10 -55 14 -5 4 -43 10 -83 14 -41 3 -81 10 -90 15 -23 12
-339 20 -492 12z"/>
<path d="M2660 3854 c-14 -2 -65 -9 -115 -15 -152 -18 -245 -40 -257 -62 -19
-36 3 -217 45 -362 19 -69 63 -157 118 -240 98 -147 287 -284 469 -340 30 -9
62 -20 70 -23 48 -18 148 -35 235 -38 55 -3 110 -9 122 -16 12 -6 36 -8 55 -4
18 4 82 11 142 16 60 5 114 14 119 19 6 6 29 11 52 11 23 0 50 7 61 15 10 8
31 15 45 15 14 0 34 7 45 15 10 8 40 15 66 15 43 0 48 -3 54 -25 l6 -25 624 0
c533 0 630 2 661 15 19 8 50 15 69 15 18 0 35 4 38 9 3 5 27 12 53 16 53 7
123 34 123 47 0 4 7 8 16 8 23 0 87 31 97 47 4 7 17 13 28 13 11 0 22 7 25 15
4 8 10 15 15 15 12 0 79 67 79 79 0 5 9 11 20 14 11 3 24 17 30 31 5 14 14 26
20 26 5 0 10 7 10 16 0 8 11 30 24 47 43 56 40 62 -39 58 -38 -1 -95 -9 -125
-17 -39 -10 -119 -14 -287 -14 -174 0 -246 -4 -290 -15 -44 -12 -121 -15 -348
-15 -159 0 -295 4 -301 8 -7 4 -15 43 -18 87 -4 46 -12 86 -21 95 -8 9 -38 24
-67 34 -29 10 -69 25 -88 33 -19 8 -44 18 -55 23 -11 4 -60 26 -110 48 -107
48 -192 82 -205 82 -12 0 -40 -53 -40 -76 0 -9 -16 -51 -36 -93 -60 -123 -146
-194 -300 -245 -81 -27 -329 -24 -415 4 -81 27 -132 57 -196 114 -89 80 -153
249 -153 405 0 121 -1 121 -79 120 -36 -1 -77 -3 -91 -5z"/>
<path d="M4238 3763 c18 -3 36 -11 39 -19 3 -8 15 -14 27 -14 11 -1 39 -9 61
-20 22 -11 48 -19 57 -20 9 0 20 -4 23 -10 7 -12 45 -14 45 -2 0 12 -56 42
-79 42 -12 0 -29 4 -39 9 -36 17 -121 41 -143 39 -16 -1 -13 -3 9 -5z"/>
<path d="M5930 3640 c-24 -13 -194 -41 -284 -46 -44 -3 -90 -7 -102 -9 -23 -5
-44 -43 -44 -80 0 -22 5 -25 38 -26 88 -3 294 17 395 39 73 15 77 17 77 43 0
14 3 41 6 58 6 31 6 31 -32 30 -22 0 -46 -4 -54 -9z"/>
<path d="M6320 3531 c0 -5 -16 -12 -35 -15 -19 -4 -35 -12 -35 -18 0 -15 68
-3 89 16 9 7 25 16 36 19 11 3 4 5 -17 6 -21 0 -38 -3 -38 -8z"/>
<path d="M2507 2593 c-9 -8 -9 -406 -1 -427 5 -13 25 -16 110 -16 117 0 158
12 192 55 31 40 29 93 -7 141 l-28 40 18 34 c37 68 20 126 -46 159 -34 17 -60
21 -137 21 -52 0 -98 -3 -101 -7z m188 -63 c31 -12 49 -53 35 -81 -24 -43
-113 -64 -144 -33 -9 9 -16 32 -16 54 0 22 7 45 16 54 17 18 70 21 109 6z m4
-181 c36 -13 51 -35 51 -78 0 -43 -40 -71 -101 -71 -62 0 -79 17 -79 80 0 31
6 54 16 64 18 19 68 21 113 5z"/>
<path d="M2917 2593 c-9 -8 -9 -406 -1 -427 7 -19 57 -21 72 -3 6 7 12 46 14
87 l3 75 56 3 c47 2 59 -1 82 -22 23 -21 27 -33 27 -79 0 -29 5 -58 12 -65 16
-16 65 -15 71 1 10 27 -12 140 -32 168 -26 35 -26 43 0 79 17 23 21 38 17 75
-10 87 -61 115 -210 115 -58 0 -108 -3 -111 -7z m204 -66 c31 -24 42 -56 29
-88 -14 -33 -37 -42 -101 -37 l-44 3 -3 54 c-2 29 -1 60 2 67 7 18 95 18 117
1z"/>
<path d="M3407 2568 c-51 -42 -68 -77 -74 -163 -7 -90 10 -163 46 -204 30 -34
96 -61 145 -61 48 1 110 34 142 76 27 35 29 44 32 148 3 129 -9 163 -74 208
-33 23 -49 27 -109 27 -63 0 -74 -3 -108 -31z m181 -51 c28 -30 42 -77 42
-142 0 -110 -41 -175 -109 -175 -76 0 -111 56 -111 177 0 54 5 84 20 112 23
45 29 49 91 50 35 1 50 -4 67 -22z"/>
<path d="M3754 2585 c-13 -32 4 -45 55 -45 27 0 53 -5 56 -10 4 -6 6 -88 5
-181 0 -117 3 -176 11 -185 17 -20 57 -17 69 5 6 11 10 91 10 189 0 192 -4
182 81 182 49 0 50 1 47 28 l-3 27 -163 3 c-138 2 -163 0 -168 -13z"/>
<path d="M4156 2585 c-8 -21 -8 -398 0 -419 4 -10 18 -16 40 -16 39 0 43 8 46
115 l3 70 80 3 c44 1 87 -2 95 -7 10 -7 16 -36 20 -93 l5 -83 30 0 30 0 0 220
0 220 -24 3 c-34 5 -39 -5 -42 -83 -4 -117 -4 -116 -106 -113 l-88 3 -5 95 -5
95 -36 3 c-26 2 -38 -1 -43 -13z"/>
<path d="M4617 2593 c-10 -10 -8 -416 2 -432 7 -11 38 -14 141 -14 139 1 165
8 144 41 -9 14 -24 17 -82 15 -39 -2 -83 2 -97 7 -25 9 -26 13 -23 72 l3 63
85 5 c83 5 85 6 85 30 0 24 -2 25 -82 28 -93 3 -98 8 -91 88 l3 39 102 5 c56
3 104 7 106 10 3 3 1 15 -4 28 -8 21 -12 22 -147 22 -76 0 -142 -3 -145 -7z"/>
<path d="M4994 2587 c-2 -7 -3 -107 -2 -222 l3 -210 23 -3 c39 -6 52 14 52 83
0 91 3 95 67 95 73 0 103 -28 103 -98 0 -61 16 -85 55 -80 30 3 30 3 26 63 -3
58 -17 101 -43 137 -10 14 -8 23 11 49 31 42 31 112 0 145 -40 43 -80 54 -188
54 -73 0 -103 -4 -107 -13z m211 -72 c30 -29 33 -75 6 -99 -14 -13 -33 -16
-77 -14 l-59 3 -3 53 c-4 67 8 82 65 82 33 0 50 -6 68 -25z"/>
<path d="M5477 2581 c-43 -28 -56 -52 -57 -103 0 -42 4 -50 36 -76 20 -17 57
-37 83 -46 92 -33 116 -51 119 -89 4 -44 -25 -67 -82 -67 -33 0 -45 6 -77 41
-27 29 -44 40 -61 37 -19 -2 -23 -9 -22 -36 4 -76 151 -127 249 -86 56 23 74
50 75 110 0 65 -27 92 -136 138 -95 40 -118 68 -91 110 15 22 25 26 67 26 43
0 51 -4 70 -31 18 -24 28 -30 53 -27 41 4 47 31 15 65 -38 41 -72 53 -145 52
-47 0 -77 -6 -96 -18z"/>
<path d="M5203 593 c9 -2 23 -2 30 0 6 3 -1 5 -18 5 -16 0 -22 -2 -12 -5z"/>
</g>
</svg>
